{
  "accessors": [
    {
      "bufferView": 2,
      "componentType": 5126,
      "count": 56,
      "max": [
        5.7672200202941895,
        0.07186000049114227,
        3.126970052719116
      ],
      "min": [
        -5.7713799476623535,
        -1.6150100231170654,
        2.5963900089263916
      ],
      "type": "VEC3"
    },
    {
      "bufferView": 2,
      "byteOffset": 672,
      "componentType": 5126,
      "count": 56,
      "max": [
        0.8748505711555481,
        0.8773738741874695,
        0.999804675579071
      ],
      "min": [
        -0.874852180480957,
        -0.8335111141204834,
        0.46965429186820984
      ],
      "type": "VEC3"
    },
    {
      "bufferView": 1,
      "componentType": 5126,
      "count": 56,
      "max": [
        0.5831999778747559,
        0.7895100116729736
      ],
      "min": [
        0.4971599876880646,
        0.7049800157546997
      ],
      "type": "VEC2"
    },
    {
      "bufferView": 0,
      "componentType": 5125,
      "count": 162,
      "type": "SCALAR"
    },
    {
      "bufferView": 2,
      "byteOffset": 1344,
      "componentType": 5126,
      "count": 56,
      "max": [
        5.766965389251709,
        0.0693800076842308,
        3.1269659996032715
      ],
      "min": [
        -5.768970012664795,
        -1.6125973463058472,
        2.596449851989746
      ],
      "type": "VEC3"
    },
    {
      "bufferView": 2,
      "byteOffset": 2016,
      "componentType": 5126,
      "count": 56,
      "max": [
        0.8748496174812317,
        0.8773680925369263,
        0.9998049139976501
      ],
      "min": [
        -0.8748494982719421,
        -0.833503246307373,
        0.46966564655303955
      ],
      "type": "VEC3"
    },
    {
      "bufferView": 1,
      "byteOffset": 448,
      "componentType": 5126,
      "count": 56,
      "max": [
        0.6689299941062927,
        0.7895100116729736
      ],
      "min": [
        0.5856800079345703,
        0.7049800157546997
      ],
      "type": "VEC2"
    },
    {
      "bufferView": 0,
      "byteOffset": 648,
      "componentType": 5125,
      "count": 162,
      "type": "SCALAR"
    },
    {
      "bufferView": 2,
      "byteOffset": 2688,
      "componentType": 5126,
      "count": 60,
      "max": [
        0.33500000834465027,
        9.972539901733398,
        -11.700969696044922
      ],
      "min": [
        -0.33500000834465027,
        2.5887598991394043,
        -22.288700103759766
      ],
      "type": "VEC3"
    },
    {
      "bufferView": 2,
      "byteOffset": 3408,
      "componentType": 5126,
      "count": 60,
      "max": [
        0.999701976776123,
        0.9999805688858032,
        0.7488318681716919
      ],
      "min": [
        -0.999701976776123,
        -0.027208570390939713,
        -0.12148483097553253
      ],
      "type": "VEC3"
    },
    {
      "bufferView": 1,
      "byteOffset": 896,
      "componentType": 5126,
      "count": 60,
      "max": [
        0.9822800159454346,
        0.9961900115013123
      ],
      "min": [
        0.021640000864863396,
        0.34999001026153564
      ],
      "type": "VEC2"
    },
    {
      "bufferView": 0,
      "byteOffset": 1296,
      "componentType": 5125,
      "count": 252,
      "type": "SCALAR"
    },
    {
      "bufferView": 2,
      "byteOffset": 4128,
      "componentType": 5126,
      "count": 546,
      "max": [
        1.4665443897247314,
        0.26904040575027466,
        14.676389694213867
      ],
      "min": [
        -1.4665465354919434,
        -1.2391612529754639,
        -3.1156563758850098
      ],
      "type": "VEC3"
    },
    {
      "bufferView": 2,
      "byteOffset": 10680,
      "componentType": 5126,
      "count": 546,
      "max": [
        0.9999969601631165,
        0.9848081469535828,
        1.0
      ],
      "min": [
        -0.9999969601631165,
        -0.9917845129966736,
        -1.0
      ],
      "type": "VEC3"
    },
    {
      "bufferView": 1,
      "byteOffset": 1376,
      "componentType": 5126,
      "count": 546,
      "max": [
        0.190870001912117,
        0.9918699860572815
      ],
      "min": [
        0.00279999990016222,
        0.11410999298095703
      ],
      "type": "VEC2"
    },
    {
      "bufferView": 0,
      "byteOffset": 2304,
      "componentType": 5125,
      "count": 834,
      "type": "SCALAR"
    },
    {
      "bufferView": 2,
      "byteOffset": 17232,
      "componentType": 5126,
      "count": 4839,
      "max": [
        17.22085952758789,
        2.9291799068450928,
        17.133209228515625
      ],
      "min": [
        -17.220849990844727,
        -1.8205000162124634,
        -22.627609252929688
      ],
      "type": "VEC3"
    },
    {
      "bufferView": 2,
      "byteOffset": 75300,
      "componentType": 5126,
      "count": 4839,
      "max": [
        1.0,
        1.0,
        1.0
      ],
      "min": [
        -1.0,
        -1.0,
        -1.0
      ],
      "type": "VEC3"
    },
    {
      "bufferView": 1,
      "byteOffset": 5744,
      "componentType": 5126,
      "count": 4839,
      "max": [
        0.9975600242614746,
        0.9988399744033813
      ],
      "min": [
        0.0009599999757483602,
        0.0018500089645385742
      ],
      "type": "VEC2"
    },
    {
      "bufferView": 0,
      "byteOffset": 5640,
      "componentType": 5125,
      "count": 12732,
      "type": "SCALAR"
    }
  ],
  "asset": {
    "extras": {
      "author": "OUTPISTON (https://sketchfab.com/outpiston)",
      "license": "CC-BY-NC-SA-4.0 (http://creativecommons.org/licenses/by-nc-sa/4.0/)",
      "source": "https://sketchfab.com/3d-models/boeing-737-800-fa2d273dba0e45348284a6d6cd711218",
      "title": "Boeing 737-800"
    },
    "generator": "Sketchfab-16.74.0",
    "version": "2.0"
  },
  "bufferViews": [
    {
      "buffer": 0,
      "byteLength": 56568,
      "name": "floatBufferViews",
      "target": 34963
    },
    {
      "buffer": 0,
      "byteLength": 44456,
      "byteOffset": 56568,
      "byteStride": 8,
      "name": "floatBufferViews",
      "target": 34962
    },
    {
      "buffer": 0,
      "byteLength": 133368,
      "byteOffset": 101024,
      "byteStride": 12,
      "name": "floatBufferViews",
      "target": 34962
    }
  ],
  "buffers": [
    {
      "byteLength": 234392,
      "uri": "scene.bin"
    }
  ],
  "images": [
    {
      "uri": "textures/material00_baseColor.jpeg"
    }
  ],
  "materials": [
    {
      "name": "material00",
      "pbrMetallicRoughness": {
        "baseColorFactor": [
          0.588,
          0.588,
          0.588,
          1.0
        ],
        "baseColorTexture": {
          "index": 0
        },
        "metallicFactor": 0.0,
        "roughnessFactor": 0.0
      }
    },
    {
      "name": "material03",
      "pbrMetallicRoughness": {
        "baseColorFactor": [
          0.588,
          0.588,
          0.588,
          1.0
        ],
        "baseColorTexture": {
          "index": 0
        },
        "metallicFactor": 0.0
      }
    }
  ],
  "meshes": [
    {
      "name": "Object_0",
      "primitives": [
        {
          "attributes": {
            "NORMAL": 1,
            "POSITION": 0,
            "TEXCOORD_0": 2
          },
          "indices": 3,
          "material": 0,
          "mode": 4
        }
      ]
    },
    {
      "name": "Object_1",
      "primitives": [
        {
          "attributes": {
            "NORMAL": 5,
            "POSITION": 4,
            "TEXCOORD_0": 6
          },
          "indices": 7,
          "material": 0,
          "mode": 4
        }
      ]
    },
    {
      "name": "Object_2",
      "primitives": [
        {
          "attributes": {
            "NORMAL": 9,
            "POSITION": 8,
            "TEXCOORD_0": 10
          },
          "indices": 11,
          "material": 0,
          "mode": 4
        }
      ]
    },
    {
      "name": "Object_3",
      "primitives": [
        {
          "attributes": {
            "NORMAL": 13,
            "POSITION": 12,
            "TEXCOORD_0": 14
          },
          "indices": 15,
          "material": 1,
          "mode": 4
        }
      ]
    },
    {
      "name": "Object_4",
      "primitives": [
        {
          "attributes": {
            "NORMAL": 17,
            "POSITION": 16,
            "TEXCOORD_0": 18
          },
          "indices": 19,
          "material": 0,
          "mode": 4
        }
      ]
    }
  ],
  "nodes": [
    {
      "children": [
        1
      ],
      "matrix": [
        1.0,
        0.0,
        0.0,
        0.0,
        0.0,
        2.220446049250313e-16,
        -1.0,
        0.0,
        0.0,
        1.0,
        2.220446049250313e-16,
        0.0,
        0.0,
        0.0,
        0.0,
        1.0
      ],
      "name": "Sketchfab_model"
    },
    {
      "children": [
        2
      ],
      "name": "root"
    },
    {
      "children": [
        3
      ],
      "matrix": [
        1.0,
        0.0,
        0.0,
        0.0,
        0.0,
        2.220446049250313e-16,
        1.0,
        0.0,
        0.0,
        -1.0,
        2.220446049250313e-16,
        0.0,
        0.0,
        0.0,
        0.0,
        1.0
      ],
      "name": "GLTF_SceneRootNode"
    },
    {
      "children": [
        4,
        6,
        8,
        10,
        12
      ],
      "name": "node_0_35"
    },
    {
      "children": [
        5
      ],
      "name": "custom_vis_LIGHT_BEACON_00_mcx_VC_5"
    },
    {
      "mesh": 0,
      "name": "Object_5"
    },
    {
      "children": [
        7
      ],
      "name": "custom_vis_LIGHT_BEACON_01_mcx_VC_6"
    },
    {
      "mesh": 1,
      "name": "Object_7"
    },
    {
      "children": [
        9
      ],
      "name": "custom_vis_LIGHT_LOGO_03_mcx_VC_7"
    },
    {
      "mesh": 2,
      "name": "Object_9"
    },
    {
      "children": [
        11
      ],
      "name": "node_23_8"
    },
    {
      "mesh": 3,
      "name": "Object_11"
    },
    {
      "children": [
        13
      ],
      "name": "node_24_9"
    },
    {
      "mesh": 4,
      "name": "Object_13"
    }
  ],
  "samplers": [
    {
      "magFilter": 9729,
      "minFilter": 9987,
      "wrapS": 10497,
      "wrapT": 10497
    }
  ],
  "scene": 0,
  "scenes": [
    {
      "name": "Sketchfab_Scene",
      "nodes": [
        0
      ]
    }
  ],
  "textures": [
    {
      "sampler": 0,
      "source": 0
    }
  ]
}
